<?xml version="1.0" encoding="UTF-8"?>
<svg width="421px" height="281px" viewBox="0 0 421 281" version="1.1" xmlns="http://www.w3.org/2000/svg" xmlns:xlink="http://www.w3.org/1999/xlink">
    <!-- Generator: Sketch 40.3 (33839) - http://www.bohemiancoding.com/sketch -->
    <title>face</title>
    <desc>Created with Sketch.</desc>
    <defs>
        <polyline id="path-1" points="34 304.237653 34 145 390.745321 145 390.745321 304.237653"></polyline>
        <mask id="mask-2" maskContentUnits="userSpaceOnUse" maskUnits="objectBoundingBox" x="0" y="0" width="356.745321" height="159.237653" fill="white">
            <use xlink:href="#path-1"></use>
        </mask>
        <rect id="path-3" x="-2" y="130" width="423.609375" height="85.4445941" rx="8"></rect>
        <mask id="mask-4" maskContentUnits="userSpaceOnUse" maskUnits="objectBoundingBox" x="0" y="0" width="423.609375" height="85.4445941" fill="white">
            <use xlink:href="#path-3"></use>
        </mask>
    </defs>
    <g id="Page-1" stroke="none" stroke-width="1" fill="none" fill-rule="evenodd">
        <g id="face">
            <path d="M210.472412,218.42366 C294.549271,218.42366 379.254272,178.429955 379.254272,129.095221 C379.254272,79.760486 317.552671,42 212.127136,42 C106.701602,42 45,79.760486 45,129.095221 C45,178.429955 126.395554,218.42366 210.472412,218.42366 Z" id="Oval-Copy" stroke="#000000" stroke-width="10" fill="#D8D8D8"></path>
            <use id="Rectangle-Copy" stroke="#000000" mask="url(#mask-2)" stroke-width="20" fill="#E6D9CA" xlink:href="#path-1"></use>
            <path d="M103,265.158402 C103,265.158402 119.547241,252 136.094482,252 C152.641724,252 169.188965,265.158402 169.188965,265.158402" id="Path-2-Copy-2" stroke="#363232" stroke-width="10" stroke-linecap="round"></path>
            <path d="M248,265.158402 C248,265.158402 264.547241,252 281.094482,252 C297.641724,252 314.188965,265.158402 314.188965,265.158402" id="Path-2-Copy-3" stroke="#363232" stroke-width="10" stroke-linecap="round"></path>
            <use id="Rectangle-4-Copy" stroke="#000000" mask="url(#mask-4)" stroke-width="20" fill="#A4ACFC" xlink:href="#path-3"></use>
            <polyline id="Triangle-2-Copy" stroke="#000000" stroke-width="10" stroke-linecap="square" fill="#8C7E72" points="42 209 311.849576 144 381.665772 209"></polyline>
        </g>
    </g>
</svg>