<?xml version="1.0" encoding="UTF-8"?>
<svg width="1540px" height="302px" viewBox="0 0 1540 302" version="1.1" xmlns="http://www.w3.org/2000/svg" xmlns:xlink="http://www.w3.org/1999/xlink" style="background: #FFFFFF;">
    <!-- Generator: Sketch 40.3 (33839) - http://www.bohemiancoding.com/sketch -->
    <title>kevin copy</title>
    <desc>Created with Sketch.</desc>
    <defs></defs>
    <g id="Page-1" stroke="none" stroke-width="1" fill="none" fill-rule="evenodd">
        <g id="kevin-copy">
            <path d="M667.189854,71.9019567 C636.992884,105.418658 630.548099,147.568503 655.400239,177.43647 C680.328515,207.899779 728.101788,204.834502 753.543556,172.326815 C763.234851,161.331776 765.853158,150.248122 761.321096,140.510539 C757.498251,132.296782 748.908644,125.942237 737.948581,122.192734 C728.012364,118.793495 716.923642,117.868429 708.266551,119.841301 C697.499647,122.294979 690.97243,129.177628 692.370072,138.886859 C693.178959,144.506094 696.415104,148.734568 701.648347,151.10549 C705.921097,153.041261 711.241188,153.643924 717.671859,153.224965 C727.361017,152.593715 738.914123,149.84337 756.337294,144.565515 C758.295524,143.972325 760.333317,143.346627 762.798735,142.583243 C781.741303,136.71793 782.890849,136.370712 789.015471,134.804728 C796.784908,132.818186 802.084478,132.084595 804.59924,132.540654 C807.943811,133.147203 811.197384,131.180385 811.866298,128.147644 C812.535213,125.114904 810.366164,122.164677 807.021593,121.558129 C801.97172,120.64232 795.259395,121.571471 785.663318,124.02506 C779.213558,125.674178 778.083807,126.015417 758.807274,131.984138 C756.365667,132.740149 754.352352,133.358331 752.423617,133.942586 C735.957206,138.930618 725.11833,141.510933 716.786689,142.053741 C708.352545,142.603226 705.152765,141.153565 704.6178,137.437233 C704.118529,133.968866 706.095328,131.884423 711.277172,130.703529 C717.333289,129.323395 725.886843,130.036967 733.588526,132.671759 C741.643507,135.427417 747.599531,139.83365 749.941369,144.865319 C752.561561,150.495061 750.944502,157.340294 743.680399,165.592339 C722.683105,192.405774 685.008278,194.823104 665.289833,170.726646 C644.253095,145.443834 649.847846,108.853333 676.755244,78.9878459 C704.231871,48.4905504 745.569029,34.164703 783.352523,45.3230141 C786.595661,46.2807851 790.081003,44.6732519 791.137253,41.7324882 C792.193503,38.7917246 790.420681,35.6313379 787.177544,34.673567 C744.135177,21.9621931 697.677514,38.062608 667.189854,71.9019567 Z" id="Path-2-Copy-7" fill="#424242"></path>
            <path d="M776.685961,155.880901 C774.260975,165.298829 774.843774,173.921398 779.193997,180.608179 C784.349547,188.532836 794.09953,192.730446 807.748304,192.730446 C829.360201,191.560556 847.936549,177.179523 857.146678,158.293014 C861.278567,149.820063 862.929533,141.325486 861.506877,134.518405 C859.749004,126.107391 853.337552,120.649974 843.70825,120.336989 C834.073607,120.023831 826.955792,125.497836 823.7633,134.293974 C821.08131,141.683548 821.241903,151.151432 824.093831,160.34917 C827.129001,170.137879 832.9709,178.973734 841.033787,185.207876 C850.351283,192.412067 862.131539,195.815748 875.571434,194.60347 C889.851556,193.315402 902.203832,183.132859 912.204633,166.477907 C920.783914,152.1903 927.411685,133.357017 931.088323,113.680041 C934.694269,94.3814002 935.188872,75.6687926 932.279695,61.6419769 C930.679304,53.9255723 928.069391,47.639246 924.340236,43.0640414 C919.92496,37.6470529 913.939108,34.6790337 906.880996,34.8107862 C899.745289,34.9439872 893.8988,38.288359 889.80567,44.0952116 C886.375463,48.9615864 884.151089,55.5477766 883.00454,63.57656 C880.919903,78.1743643 882.468307,97.4811555 887.118338,117.187528 C891.857737,137.272632 899.444895,156.238825 908.654098,170.241554 C919.483221,186.707396 932.294514,196.113089 946.561372,195.769313 C960.669962,195.429351 973.592696,185.675562 984.764237,169.073736 C994.363042,154.809125 1002.41025,135.71438 1007.51969,115.735057 C1012.58748,95.9185784 1014.38165,76.7168 1012.28265,62.2717805 C1011.11764,54.2543715 1008.7733,47.6979068 1005.09859,42.8824708 C1000.76485,37.2034255 994.616405,34.0493884 987.189956,34.0493884 C979.828424,34.0493884 973.608399,37.1563925 968.979461,42.7597848 C965.03763,47.5314255 962.259555,54.0670439 960.52588,62.0918843 C957.407927,76.5242811 957.731866,95.7728216 961.171995,115.773315 C964.602757,135.719345 970.874825,154.894791 978.872484,169.186293 C988.251075,185.945464 999.731843,195.771289 1013.03111,195.771289 C1026.47524,195.771289 1051.64663,185.205824 1069.583,172.334996 C1079.51247,165.209776 1086.57892,157.883135 1089.66613,150.777318 C1093.67781,141.543606 1090.79131,132.927209 1080.94568,127.040829 C1059.71436,115.347676 1038.36034,123.941073 1029.30911,143.449641 C1025.28397,152.125233 1024.40321,161.888529 1027.11633,170.626207 C1030.16303,180.438204 1037.48517,188.347038 1048.53848,192.974854 C1059.43352,196.702134 1069.41994,195.219636 1078.32563,189.581132 C1085.20022,185.22859 1091.16079,178.631809 1096.54824,170.252766 C1099.7039,165.344811 1102.33158,160.394933 1105.11688,154.491037 C1105.52453,153.626957 1107.11922,150.186451 1107.42894,149.54555 C1107.67399,149.038468 1107.84524,148.707882 1107.92322,148.578036 C1106.57455,150.178976 1105.39303,151.004994 1102.9356,151.004994 C1100.76511,151.004994 1098.88326,149.98392 1097.81092,148.470172 C1097.25777,147.68934 1097.02459,146.988162 1096.92305,146.29483 C1096.88256,145.475482 1096.8875,145.418275 1096.89223,145.379862 C1096.87648,145.507798 1096.79766,145.898252 1096.65294,146.522309 C1096.58332,146.822496 1096.50292,147.159609 1096.38125,147.663395 C1096.15067,148.616679 1096.09706,148.838991 1096.04358,149.061798 C1095.73935,150.329357 1095.49575,151.382914 1095.25743,152.481693 C1094.10981,157.772661 1093.44691,162.533219 1093.4072,167.174525 C1093.34543,174.393673 1094.838,180.544814 1098.4908,185.37945 C1103.04689,191.409645 1110.476,194.630972 1120.37338,194.630972 C1138.6678,194.630972 1161.29984,184.648021 1176.54165,170.520878 C1193.88928,154.441919 1198.53827,135.994038 1184.48217,122.141658 C1170.80187,108.659633 1151.89654,107.226579 1137.77501,117.06772 C1123.95705,126.69731 1118.88746,144.203761 1126.41891,161.44499 C1128.33811,165.838473 1131.11469,171.246734 1135.91388,180.119706 C1137.0805,182.276598 1141.41361,190.23913 1142.17928,191.65095 C1144.77985,196.446172 1146.86154,200.330259 1148.86933,204.15169 C1152.59579,211.244282 1155.7898,217.605276 1158.6248,223.646619 C1168.0782,243.7917 1173.06893,259.511095 1172.88898,270.628836 C1172.70099,282.242926 1167.1719,287.500566 1153.10393,287.500566 C1140.6951,285.604615 1136.15286,279.89684 1137.61232,269.048741 C1139.03385,258.482671 1146.25371,244.107996 1158.46701,226.354467 C1162.74309,220.138653 1167.56781,213.592123 1173.09811,206.43811 C1178.62292,199.291189 1200.7969,171.898327 1204.55926,166.786958 C1229.97476,132.310443 1246.63009,100.268414 1252.85027,75.6891021 C1255.78347,64.0984073 1256.2937,54.4718359 1254.23257,47.3897773 C1251.8158,39.0857584 1245.65221,34.0493884 1236.9613,34.0493884 C1228.01154,34.6658339 1221.88143,38.3271337 1218.75543,44.6351128 C1216.19274,49.8063787 1215.78103,56.4132325 1217.05095,64.643406 C1218.90843,76.6814719 1222.89573,88.1571663 1233.83138,115.738369 C1244.11827,141.683312 1247.95284,152.635458 1249.82035,163.505542 C1250.91318,169.866498 1250.80785,174.666816 1249.58192,177.800052 C1248.54359,180.453815 1246.77411,181.826838 1243.40739,182.380527 C1243.24116,182.239533 1241.47496,180.219061 1240.35625,175.540805 C1238.97872,169.780191 1239.31468,161.95183 1241.39983,154.227226 C1246.29721,136.084487 1258.44536,124.000568 1274.73798,123.93124 C1281.9322,123.900627 1284.50697,125.656674 1285.47107,129.87996 C1286.43999,134.124347 1285.88088,139.010311 1283.50479,150.976601 C1280.72598,164.996349 1280.10915,171.222422 1281.84396,177.701717 C1284.44676,187.422848 1292.73119,192.730446 1306.27356,192.730446 C1324.62673,192.730446 1347.06548,179.584392 1362.34198,161.906944 C1369.67877,153.417068 1374.53404,144.696797 1375.86762,136.986843 C1377.51682,127.452222 1373.71119,119.535862 1364.40438,115.431209 C1343.00554,108.038478 1322.00836,124.621395 1318.09505,146.789803 C1316.15328,157.789659 1318.91163,168.548091 1326.56723,176.841329 C1335.13271,186.120247 1349.10898,191.653385 1367.9349,192.719553 C1390.18231,192.730443 1405.36998,188.864972 1414.74415,181.247031 C1423.01268,174.527592 1426.20767,165.510979 1425.63245,154.68898 C1425.35504,149.470035 1424.31347,144.39269 1422.41174,137.624548 C1418.93899,125.265207 1419.50847,127.442365 1419.50847,125.933417 C1419.50847,123.511321 1425.58489,120.113448 1434.34928,119.494822 C1444.6998,118.76424 1453.90427,122.101513 1458.04577,128.702533 C1459.73236,131.390751 1463.50292,132.330203 1466.46755,130.800858 C1469.43217,129.271512 1470.46822,125.852501 1468.78162,123.164282 C1461.97853,112.321016 1448.10294,107.29013 1433.3907,108.328579 C1419.01678,109.343149 1407.15686,115.975099 1407.15685,125.933397 C1407.15684,127.811369 1407.53658,129.900889 1408.29057,132.783474 C1408.69538,134.331092 1410.44443,140.396645 1410.4425,140.3898 C1412.15618,146.488688 1413.06647,150.926078 1413.29514,155.228165 C1413.70589,162.955795 1411.6679,168.707223 1406.50063,172.906422 C1399.7518,178.39087 1387.41632,181.530421 1368.31987,181.530421 C1353.04647,180.654531 1342.24877,176.379774 1336.03869,169.652448 C1330.80685,163.984843 1328.88899,156.504585 1330.29141,148.560035 C1331.61987,141.0345 1335.85371,133.885541 1341.54881,129.387734 C1347.16261,124.954128 1353.41663,123.603921 1359.51061,125.702364 C1363.08131,127.302246 1364.52183,130.298777 1363.66518,135.251418 C1362.70285,140.814989 1358.76469,147.888076 1352.61974,154.998813 C1339.45731,170.22992 1320.1687,181.530424 1306.27356,181.530424 C1298.18793,181.530424 1295.03943,179.513276 1293.8469,175.059303 C1292.68018,170.701736 1293.21538,165.299642 1295.51015,153.721212 C1296.96846,146.376428 1297.46702,143.590581 1297.86519,140.11096 C1298.42308,135.235714 1298.38354,131.189746 1297.56629,127.60971 C1295.3711,117.993572 1287.57499,112.676471 1274.68002,112.731341 C1251.72362,112.829025 1235.50309,128.963785 1229.40237,151.56442 C1226.89385,160.857452 1226.48492,170.385976 1228.28515,177.914205 C1230.45747,186.99848 1235.85926,193.177962 1244.25991,193.486079 C1253.34922,192.128243 1258.70898,187.96935 1261.22262,181.544962 C1263.2618,176.333228 1263.40483,169.814411 1262.02477,161.781546 C1259.9859,149.914068 1256.04886,138.66925 1245.4773,112.006303 C1234.8568,85.2199681 1230.97322,74.0427672 1229.28342,63.0914776 C1228.30648,56.7600475 1228.59679,52.1013831 1230.02184,49.2257603 C1231.23408,46.7795713 1233.33812,45.5229014 1237.44192,45.2324266 C1239.61553,45.2494104 1241.21569,46.5569271 1242.28982,50.2476385 C1243.75645,55.2870031 1243.33675,63.2056558 1240.81154,73.1841272 C1234.96284,96.2955218 1218.93171,127.136699 1194.28817,160.566032 C1190.70813,165.429712 1168.65285,192.675949 1162.98383,200.009407 C1157.33535,207.316308 1152.39155,214.024405 1147.98718,220.426693 C1134.88677,239.469756 1127.04921,255.074271 1125.3516,267.692471 C1123.10135,284.41835 1132.06572,295.682964 1152.11626,298.62851 C1174.0997,298.700588 1184.95464,288.378574 1185.23927,270.793197 C1185.45141,257.686622 1180.07435,240.750394 1169.99027,219.261348 C1167.08002,213.059629 1163.81625,206.559706 1160.02015,199.334566 C1157.98704,195.464952 1155.88447,191.541893 1153.26318,186.708487 C1152.49124,185.285105 1148.16216,177.329963 1147.00355,175.187884 C1142.34531,166.575507 1139.6636,161.35205 1137.90248,157.320434 C1132.37957,144.67723 1135.9074,132.494865 1145.30171,125.94807 C1154.36051,119.635085 1166.05362,120.52144 1175.39268,129.725154 C1179.87497,134.142478 1181.22554,139.118551 1179.79182,144.807744 C1178.35961,150.490972 1174.13479,156.735961 1167.71251,162.688562 C1154.6498,174.795965 1135.0737,183.43095 1120.37338,183.43095 C1109.59647,183.43095 1105.66462,178.226977 1105.75845,167.261419 C1105.79125,163.42823 1106.36487,159.308808 1107.37687,154.643087 C1107.59694,153.628499 1107.8246,152.643842 1108.11269,151.443556 C1108.36711,150.389515 1108.41171,150.205215 1108.44691,150.059447 C1108.57537,149.527585 1108.66187,149.164866 1108.74021,148.827077 C1108.96322,147.865415 1109.09484,147.213406 1109.16759,146.622549 C1109.24306,146.009582 1109.2624,145.470612 1109.16719,144.820447 C1109.05082,144.025845 1108.79237,143.248693 1108.20321,142.417023 C1107.09442,140.851824 1105.16506,139.804972 1102.9356,139.804972 C1100.38214,139.804972 1099.08002,140.715299 1097.90898,142.058586 C1097.58015,142.435779 1097.32758,142.802285 1097.07585,143.221435 C1096.78697,143.702424 1096.49248,144.270912 1096.11582,145.050346 C1095.76125,145.784037 1094.1358,149.29093 1093.76073,150.085947 C1091.15847,155.601857 1088.73285,160.171113 1085.87772,164.611656 C1075.97093,180.019571 1065.34052,186.750047 1053.29922,182.648332 C1045.97617,179.56578 1041.08285,174.280382 1039.00568,167.590781 C1037.07486,161.372523 1037.72199,154.199039 1040.69422,147.792832 C1043.61985,141.487079 1048.47859,136.611884 1054.11509,134.343611 C1060.14089,131.918677 1066.96117,132.440005 1074.34104,136.502887 C1079.06668,139.33285 1080.06632,142.316837 1078.17413,146.672102 C1076.0399,151.584454 1070.29383,157.542103 1061.9181,163.552378 C1045.95982,175.003766 1023.166,184.571268 1013.03111,184.571268 C997.465036,184.571268 980.199631,153.718671 973.376078,114.047363 C970.140568,95.2365062 969.837844,77.2485701 972.647116,64.2450017 C975.404669,51.4808292 980.552416,45.2494104 987.189956,45.2494104 C993.659214,45.2494104 998.219022,51.2247015 1000.03687,63.7348694 C1001.91932,76.6896365 1000.2461,94.5968888 995.487341,113.204991 C985.224673,153.334902 964.50026,184.13308 946.23326,184.573244 C928.349788,185.004166 908.702818,155.130657 899.196578,114.84415 C890.207319,76.7485584 894.563646,46.2431069 907.135215,46.0084357 C919.843248,45.771217 925.843621,74.7024609 918.910255,111.809098 C911.531932,151.297097 893.243374,181.754162 874.348796,183.458453 C864.275618,184.367054 855.825026,181.925416 849.047966,176.685462 C842.953635,171.973389 838.387048,165.066439 835.984415,157.31772 C833.759709,150.142833 833.637137,142.916528 835.495882,137.795207 C837.097041,133.383602 839.659898,131.412619 843.265785,131.529823 C846.891394,131.647667 848.647916,133.142815 849.371252,136.603812 C850.271723,140.912356 849.048851,147.204294 845.850189,153.763547 C838.35516,169.133033 823.462554,180.662266 807.377098,181.540549 C798.170365,181.530424 792.56451,179.116964 789.832468,174.91751 C787.338547,171.084074 786.946955,165.29043 788.714093,158.427389 C790.379544,151.959269 793.852012,145.100328 798.015425,139.790365 C799.930798,137.347522 801.878895,135.388189 803.623137,134.111613 C804.378152,133.559033 805.050399,133.167837 805.594541,132.941611 C809.443609,132.777866 812.208614,130.270655 812.208614,127.177855 C812.208614,124.085054 809.443609,121.577844 806.032802,121.577844 C794.58446,121.577844 781.085559,138.794167 776.685961,155.880901 Z" id="Path-3-Copy-13" fill="#424242"></path>
            <path d="M86.7863568,42.2430295 C88.8180281,43.3868699 91.0895275,44.7257506 93.5400211,46.2456711 C100.547133,50.5918378 107.55428,55.4996097 114.071755,60.8479272 C132.931264,76.3242645 143.712966,92.1431953 142.807642,106.864426 C141.770764,123.724828 140.874683,133.227538 138.640123,145.171181 C135.734135,160.70359 131.399538,172.594484 125.600556,179.488098 C119.527646,186.707345 112.439482,187.959155 101.67686,182.274492 C89.4325313,175.379743 87.9136411,167.982228 95.1698448,157.035241 C101.764202,147.086742 114.078913,136.246951 136.674657,119.346181 C138.977486,117.623751 141.284649,115.910617 144.655848,113.416265 C159.952239,102.098456 164.373051,98.7752372 171.094348,93.3929963 C180.311653,86.0120172 187.260009,79.6990443 192.415485,73.8030653 C198.666426,66.6542742 202.28067,60.0997483 202.925807,53.7568542 C203.687442,46.2685696 200.209726,39.6295713 192.726228,34.3209725 C183.718049,28.983968 175.101235,29.1171087 167.880192,34.1944082 C162.231632,38.1660555 157.718843,44.9280795 153.967586,54.0877057 C148.20592,68.1562453 144.362052,87.9239983 142.815116,106.760352 C140.380637,136.403933 156.630797,174.781424 176.815463,189.708939 C187.607463,197.690135 198.100102,198.758706 209.724303,194.408477 C212.30924,193.441092 214.936836,192.228689 218.022986,190.628205 C219.211816,190.011676 220.431075,189.358383 222.009649,188.497222 C222.349621,188.311757 225.135843,186.78508 225.958559,186.338111 C227.782556,185.347161 229.25101,184.570472 230.680136,183.847957 C241.094924,178.582614 256.84,164.399217 265.391867,151.70219 C270.796222,143.678302 273.567435,136.205688 272.889909,129.537791 C272.039662,121.170053 265.862972,115.043022 255.112319,112.058809 C240.288504,109.063546 227.474969,113.551816 218.618743,123.529482 C210.803728,132.334092 206.749669,144.767417 207.514474,157.001296 C208.334754,170.122567 214.549346,181.779747 225.569636,188.994437 C238.006912,197.136788 255.398479,199.009269 276.661907,193.870577 C310.352894,183.67867 330.522672,165.654969 335.656976,145.387277 C337.84664,136.743564 336.945199,128.344265 333.208844,121.97012 C329.13471,115.019732 321.971233,111.056532 313.769029,111.844706 C303.541375,113.365336 297.670859,120.212026 296.162156,130.040882 C294.942445,137.987023 296.543155,147.893143 300.415012,157.906108 C308.958461,180.000218 325.587923,197.032592 343.306044,197.032592 C361.027937,197.032592 377.950551,179.306469 386.757414,156.597313 C390.742026,146.322689 392.39284,136.293227 391.109954,128.44583 C389.486329,118.514139 383.05161,111.978556 372.579177,111.57642 C364.432009,111.571405 358.175248,114.930588 354.400458,120.782698 C351.282107,125.617122 350.012668,131.9079 350.455887,138.734018 C351.342308,152.385979 358.704726,165.893549 369.496187,170.919685 C380.785296,174.654377 390.185085,172.567774 398.208108,165.944506 C403.883392,161.259373 408.215496,155.288899 414.381671,144.856786 C414.006778,145.49104 418.282587,138.19601 419.401648,136.351321 C425.797553,125.808141 429.802579,122.181615 433.275084,122.8805 C432.955639,122.811659 432.634916,122.639202 432.392424,122.385254 C432.522955,123.381172 432.414818,125.272705 431.860909,127.886313 C430.857676,132.620051 429.495667,136.505276 424.486552,149.683503 C424.069038,150.781921 423.732242,151.671377 423.409613,152.528819 C418.612401,165.278234 416.351983,172.862992 415.953109,179.537222 C415.325997,190.030472 420.56674,197.032592 431.868474,197.032592 C440.142285,197.032592 446.069239,193.077818 449.81765,186.111107 C452.358187,181.389321 453.728074,176.325022 455.729497,166.121856 C455.805505,165.734369 455.882836,165.338545 455.986934,164.804556 C456.115586,164.144336 456.184494,163.790746 456.244577,163.482907 C456.453509,162.41242 456.610358,161.615501 456.766855,160.832439 C457.167401,158.828225 457.520615,157.146663 457.882035,155.546047 C460.280904,144.922208 463.186255,137.76563 467.763979,132.523175 C473.17733,126.323751 480.958196,123.062205 492.625732,123.013486 C505.352759,123.063328 514.093159,126.453917 519.751865,132.626655 C524.641032,137.95995 527.348424,145.518694 528.073669,154.817802 C528.714815,163.038585 527.78165,171.982514 525.82354,180.806918 C525.286587,183.226743 524.712179,185.447565 524.140099,187.415182 C523.942087,188.096224 523.759477,188.694312 523.597272,189.202744 C523.504046,189.49496 523.44116,189.684407 523.413625,189.764418 C522.397594,192.71681 524.213417,195.857059 527.469379,196.77836 C530.72534,197.699661 534.188474,196.053136 535.204504,193.100744 C535.391638,192.55697 535.698082,191.596423 536.083621,190.270396 C536.715734,188.096305 537.34552,185.661378 537.932481,183.016182 C540.091825,173.284896 541.124487,163.387343 540.394522,154.027716 C539.50207,142.584685 536.013314,132.844454 529.250348,125.467147 C521.143412,116.623783 508.907114,111.87706 492.623846,111.813575 C477.233526,111.877617 465.882229,116.635799 458.080318,125.570626 C452.026306,132.503741 448.535599,141.102191 445.781446,153.299471 C445.398962,154.993374 445.029093,156.754222 444.613183,158.835312 C444.45312,159.636221 444.293586,160.446782 444.081958,161.53108 C444.021549,161.840594 443.952299,162.195937 443.823877,162.854975 C443.720478,163.385379 443.643837,163.777674 443.56874,164.160511 C440.263163,181.012202 437.669584,185.83257 431.868474,185.83257 C430.041362,185.83257 429.378813,185.557836 429.03612,185.099965 C428.471827,184.346018 428.134468,182.689465 428.286636,180.143277 C428.60229,174.861554 430.67816,167.896038 435.099556,156.145421 C435.417445,155.300577 435.750341,154.421419 436.164024,153.333079 C441.422804,139.498022 442.825867,135.495686 443.990586,129.99998 C444.831411,126.032564 445.01751,122.777327 444.351053,119.992251 C443.381975,115.942542 440.517669,112.942917 436.059432,111.96922 C429.653306,110.678984 423.985621,112.695079 419.036476,117.176499 C415.543442,120.339419 412.479033,124.524833 408.57932,130.953225 C407.409861,132.880991 403.079498,140.269096 403.495108,139.565955 C392.365712,158.39499 385.303043,164.225454 374.409808,160.669397 C368.819701,158.013542 363.439845,148.14331 362.786159,138.075743 C362.475556,133.29208 363.310893,129.15252 365.062294,126.437298 C366.653673,123.970162 368.886417,122.771427 372.317879,122.771427 C375.973129,122.916806 378.067177,125.043678 378.891842,130.088144 C379.841764,135.898802 378.477821,144.185394 375.10525,152.88182 C367.849882,171.590331 354.253232,185.83257 343.306044,185.83257 C332.280145,185.83257 319.071176,172.303564 312.070897,154.200226 C308.800543,145.742803 307.478498,137.561217 308.395849,131.584884 C309.222182,126.201507 311.51852,123.523324 315.425227,122.938844 C321.549636,122.359781 326.624094,131.016702 323.618863,142.879868 C319.51193,159.09201 302.576411,174.22558 273.115063,183.147852 C255.563011,187.378533 241.965934,185.91459 232.799852,179.913801 C225.001496,174.808425 220.467464,166.303598 219.8463,156.367421 C219.249176,146.815767 222.410384,137.12071 228.240939,130.551848 C234.241054,123.791954 242.354561,120.94999 251.968983,122.881028 C257.697936,124.489602 260.228038,126.999363 260.590381,130.565369 C260.977028,134.37057 258.998031,139.706962 254.850693,145.864548 C247.373535,156.965946 233.156689,169.77269 224.665247,174.065658 C223.10746,174.853219 221.535314,175.684752 219.610353,176.730555 C208.658063,182.680769 208.5866,182.71783 205.012111,184.055543 C197.441093,186.888914 191.763066,186.310662 184.6221,181.02958 C167.715341,168.526231 152.985333,133.738837 155.132635,107.592094 C156.600934,89.7132617 160.260236,70.8946668 165.546574,57.98676 C168.568746,50.607377 171.994441,45.4742688 175.44902,43.0452656 C178.415835,40.9592222 181.294601,40.9147417 185.554204,43.4263662 C193.17635,48.8603955 192.480535,55.7015524 182.736965,66.844633 C178.114763,72.1307408 171.636151,78.0169248 162.918301,84.9979534 C156.367128,90.2439634 151.999985,93.5268375 136.846971,104.738562 C133.460202,107.244435 131.138415,108.968428 128.815036,110.706228 C105.113494,128.434095 92.1581544,139.837785 84.5833158,151.265477 C73.9893668,167.247913 76.9195426,181.518872 95.3112213,191.87127 C111.589908,200.471997 125.558667,198.005036 135.421281,186.280729 C142.729918,177.592495 147.604082,164.221431 150.817751,147.044481 C153.153915,134.557766 154.078101,124.757015 155.140106,107.488016 C155.773096,97.1951399 152.239649,86.8800766 145.282773,76.6729357 C139.600293,68.3355913 131.779314,60.2734403 122.359765,52.5436459 C115.393332,46.826908 107.953434,41.6160393 100.513502,37.001416 C97.90753,35.3850599 95.4837399,33.9564152 93.3016899,32.7279108 C91.9747229,31.9808221 91.0102452,31.4599016 90.4680008,31.1778965 C87.5092918,29.6391602 83.7351333,30.566651 82.0381819,33.2495051 C80.3412305,35.9323593 81.3640872,39.3546346 84.3227963,40.8933709 C85.4594402,41.5033389 86.0816721,41.8462887 86.7863568,42.2430295 Z" id="Path-3-Copy-19" fill="#414141"></path>
            <circle id="Oval-2" fill="#424242" cx="434" cy="87" r="8"></circle>
        </g>
    </g>
</svg>